<svg width="44" height="44" viewBox="0 0 44 44" fill="none" xmlns="http://www.w3.org/2000/svg">
<path d="M0.00341165 0H14.18C14.18 6.71048 14.18 13.421 14.18 20.1314C14.4032 19.2296 14.7776 18.3722 15.2872 17.5958C16.1265 16.3418 17.3105 15.3581 18.696 14.7638C19.7345 14.3249 20.8566 14.1198 21.9829 14.1628C23.1092 14.2058 24.2123 14.4959 25.2145 15.0126C26.2167 15.5293 27.0934 16.2601 27.7828 17.1533C28.4722 18.0465 28.9575 19.0804 29.2044 20.182C29.2271 16.3594 29.2044 12.5351 29.2149 8.71247C29.2027 8.1893 29.2375 7.66613 29.1992 7.13076C28.9047 5.91843 28.3102 4.79991 27.4704 3.87841C26.4659 2.80068 25.0331 2.20776 23.5846 2.04907C22.5598 1.94932 21.5269 1.96922 20.5066 2.10836C22.9594 0.931728 25.6148 0.23732 28.3287 0.06278C29.4865 -0.0383655 30.6494 0.0174389 31.8106 0.00174389C34.6431 -0.0103879 37.3804 1.02444 39.4986 2.90808C41.6168 4.79172 42.9669 7.3918 43.2905 10.2105C43.3514 10.8532 43.3724 11.4991 43.3531 12.1444V43.36H29.2096V31.6899C29.2096 28.9799 29.227 26.2699 29.1957 23.5599C28.8108 25.2655 27.8588 26.7894 26.4957 27.8818C25.1327 28.9743 23.4396 29.5704 21.6939 29.5724C19.9483 29.5744 18.2538 28.9822 16.8882 27.893C15.5227 26.8037 14.5671 25.282 14.1783 23.5774C14.1783 27.4465 14.1783 31.3173 14.1783 35.1899C14.1783 35.5387 14.1556 35.8875 14.1904 36.245C14.4572 37.28 14.931 38.2501 15.5832 39.0962C16.3698 40.07 17.4474 40.7656 18.6577 41.0808C19.9278 41.3939 21.2471 41.4532 22.54 41.2552C22.5818 41.2831 22.6254 41.3145 22.6671 41.3458C21.6876 41.7987 20.6749 42.1759 19.6379 42.4741C18.048 42.9273 16.4134 43.2051 14.7632 43.3025C13.7378 43.3792 12.7106 43.3304 11.6852 43.3443C9.25656 43.3799 6.879 42.6445 4.89314 41.2436C2.90728 39.8427 1.41503 37.8482 0.630155 35.5457C0.339599 34.6993 0.151393 33.8211 0.0695679 32.9298C-0.0227026 31.6952 0.00341165 30.457 0.00341165 29.2206V0Z" fill="#29166F"/>
</svg>
