<svg width="200" height="16" viewBox="0 0 200 16" fill="none" xmlns="http://www.w3.org/2000/svg">
<path d="M0 14.8971V0.201857H5.14736C6.93043 0.201857 8.28287 0.545014 9.20468 1.23133C10.1265 1.91091 10.5874 2.91011 10.5874 4.22891C10.5874 4.94886 10.4024 5.58471 10.0323 6.13646C9.66223 6.68147 9.14749 7.08182 8.48809 7.3375C9.24169 7.52591 9.8338 7.90607 10.2644 8.478C10.7018 9.04993 10.9205 9.7497 10.9205 10.5773C10.9205 11.9903 10.4697 13.0602 9.56803 13.7868C8.6664 14.5135 7.38124 14.8836 5.71256 14.8971H0ZM3.02786 8.49818V12.4647H5.62172C6.33495 12.4647 6.89006 12.2965 7.28704 11.96C7.69075 11.6169 7.89261 11.1459 7.89261 10.547C7.89261 9.20132 7.19621 8.51837 5.80339 8.49818H3.02786ZM3.02786 6.3585H5.26847C6.79586 6.33158 7.55955 5.72265 7.55955 4.53169C7.55955 3.86556 7.36442 3.38783 6.97416 3.09851C6.59063 2.80245 5.9817 2.65442 5.14736 2.65442H3.02786V6.3585Z" fill="white"/>
<path d="M21.4978 11.8692H16.1889L15.1797 14.8971H11.96L17.4304 0.201857H20.2362L25.7368 14.8971H22.5172L21.4978 11.8692ZM17.0065 9.41663H20.6803L18.8333 3.91603L17.0065 9.41663Z" fill="white"/>
<path d="M39.0593 14.8971H36.0315L30.1373 5.2281V14.8971H27.1094V0.201857H30.1373L36.0416 9.891V0.201857H39.0593V14.8971Z" fill="white"/>
<path d="M46.306 9.00283L44.7315 10.6984V14.8971H41.7037V0.201857H44.7315V6.86314L46.0638 5.03633L49.8082 0.201857H53.5325L48.3145 6.73193L53.6839 14.8971H50.0807L46.306 9.00283Z" fill="white"/>
<path d="M67.5918 11.0416C67.5918 10.4697 67.39 10.0323 66.9863 9.72951C66.5826 9.42 65.8559 9.09703 64.8062 8.7606C63.7566 8.41744 62.9256 8.08101 62.3133 7.75131C60.6446 6.84968 59.8103 5.63518 59.8103 4.10779C59.8103 3.31382 60.0323 2.60732 60.4764 1.98829C60.9272 1.36254 61.5698 0.874714 62.4041 0.524828C63.2452 0.174943 64.1872 0 65.2301 0C66.2798 0 67.215 0.191764 68.0359 0.575293C68.8568 0.952093 69.4927 1.48701 69.9435 2.18006C70.401 2.8731 70.6298 3.66034 70.6298 4.54178H67.6019C67.6019 3.86893 67.39 3.34746 66.9661 2.97739C66.5422 2.60059 65.9467 2.41219 65.1796 2.41219C64.4395 2.41219 63.8642 2.57031 63.4538 2.88656C63.0433 3.19607 62.8381 3.60651 62.8381 4.11788C62.8381 4.59561 63.077 4.99596 63.5547 5.31893C64.0392 5.64191 64.749 5.94469 65.6843 6.22729C67.4068 6.74539 68.6617 7.38797 69.4489 8.15503C70.2362 8.92208 70.6298 9.87754 70.6298 11.0214C70.6298 12.2931 70.1487 13.2923 69.1865 14.019C68.2243 14.7389 66.9291 15.0989 65.3008 15.0989C64.1704 15.0989 63.1409 14.8937 62.2124 14.4832C61.2838 14.0661 60.5739 13.4975 60.0828 12.7776C59.5983 12.0576 59.3561 11.2233 59.3561 10.2745H62.394C62.394 11.8961 63.3629 12.7069 65.3008 12.7069C66.0207 12.7069 66.5826 12.5622 66.9863 12.2729C67.39 11.9769 67.5918 11.5664 67.5918 11.0416Z" fill="white"/>
<path d="M80.9851 11.8692H75.6762L74.6669 14.8971H71.4473L76.9176 0.201857H79.7235L85.2241 14.8971H82.0044L80.9851 11.8692ZM76.4937 9.41663H80.1675L78.3205 3.91603L76.4937 9.41663Z" fill="white"/>
<path d="M86.5967 14.8971V0.201857H91.1183C92.4102 0.201857 93.5641 0.49455 94.5801 1.07994C95.6029 1.65859 96.4002 2.48621 96.9721 3.56278C97.5441 4.63262 97.83 5.85049 97.83 7.21639V7.89261C97.83 9.25851 97.5474 10.473 96.9822 11.5361C96.4238 12.5992 95.6332 13.4235 94.6104 14.0089C93.5877 14.5943 92.4337 14.8903 91.1486 14.8971H86.5967ZM89.6245 2.65442V12.4647H91.088C92.2722 12.4647 93.1772 12.0778 93.803 11.304C94.4287 10.5302 94.7484 9.42336 94.7618 7.98345V7.2063C94.7618 5.71256 94.4523 4.58216 93.8333 3.8151C93.2142 3.04131 92.3092 2.65442 91.1183 2.65442H89.6245Z" fill="white"/>
<path d="M108.882 8.52846H103.068V12.4647H109.891V14.8971H100.04V0.201857H109.871V2.65442H103.068V6.15664H108.882V8.52846Z" fill="white"/>
<path d="M117.107 9.51756H114.695V14.8971H111.667V0.201857H117.128C118.864 0.201857 120.203 0.58875 121.145 1.36254C122.087 2.13632 122.558 3.22971 122.558 4.64271C122.558 5.64527 122.339 6.48298 121.901 7.15583C121.471 7.82196 120.815 8.35352 119.933 8.7505L123.113 14.7558V14.8971H119.863L117.107 9.51756ZM114.695 7.065H117.138C117.898 7.065 118.487 6.87323 118.904 6.48971C119.321 6.09945 119.53 5.56453 119.53 4.88494C119.53 4.1919 119.331 3.64688 118.934 3.2499C118.544 2.85291 117.942 2.65442 117.128 2.65442H114.695V7.065Z" fill="white"/>
<path d="M133.165 11.8692H127.856L126.847 14.8971H123.627L129.098 0.201857H131.904L137.404 14.8971H134.184L133.165 11.8692ZM128.674 9.41663H132.348L130.501 3.91603L128.674 9.41663Z" fill="white"/>
<path d="M148.627 2.65442H144.126V14.8971H141.098V2.65442H136.657V0.201857H148.627V2.65442Z" fill="white"/>
<path d="M158.125 14.8971H155.097V0.201857H158.125V14.8971Z" fill="white"/>
<path d="M166.381 9.51756H163.969V14.8971H160.941V0.201857H166.401C168.137 0.201857 169.476 0.58875 170.418 1.36254C171.36 2.13632 171.831 3.22971 171.831 4.64271C171.831 5.64527 171.612 6.48298 171.175 7.15583C170.744 7.82196 170.088 8.35352 169.207 8.7505L172.386 14.7558V14.8971H169.136L166.381 9.51756ZM163.969 7.065H166.411C167.171 7.065 167.76 6.87323 168.177 6.48971C168.594 6.09945 168.803 5.56453 168.803 4.88494C168.803 4.1919 168.604 3.64688 168.208 3.2499C167.817 2.85291 167.215 2.65442 166.401 2.65442H163.969V7.065Z" fill="white"/>
<path d="M182.438 11.8692H177.13L176.12 14.8971H172.901L178.371 0.201857H181.177L186.677 14.8971H183.458L182.438 11.8692ZM177.947 9.41663H181.621L179.774 3.91603L177.947 9.41663Z" fill="white"/>
<path d="M200 14.8971H196.972L191.078 5.2281V14.8971H188.05V0.201857H191.078L196.982 9.891V0.201857H200V14.8971Z" fill="white"/>
</svg>
