<svg width="293" height="44" viewBox="0 0 293 44" fill="none" xmlns="http://www.w3.org/2000/svg">
<path d="M0.00341165 0H14.18C14.18 6.71048 14.18 13.421 14.18 20.1314C14.4032 19.2296 14.7776 18.3722 15.2872 17.5958C16.1265 16.3418 17.3105 15.3581 18.696 14.7638C19.7345 14.3249 20.8566 14.1198 21.9829 14.1628C23.1092 14.2058 24.2123 14.4959 25.2145 15.0126C26.2167 15.5293 27.0934 16.2601 27.7828 17.1533C28.4722 18.0465 28.9575 19.0804 29.2044 20.182C29.2271 16.3594 29.2044 12.5351 29.2149 8.71247C29.2027 8.1893 29.2375 7.66613 29.1992 7.13076C28.9047 5.91843 28.3102 4.79991 27.4704 3.87841C26.4659 2.80068 25.0331 2.20776 23.5846 2.04907C22.5598 1.94932 21.5269 1.96922 20.5066 2.10836C22.9594 0.931728 25.6148 0.23732 28.3287 0.06278C29.4865 -0.0383655 30.6494 0.0174389 31.8106 0.00174389C34.6431 -0.0103879 37.3804 1.02444 39.4986 2.90808C41.6168 4.79172 42.9669 7.3918 43.2905 10.2105C43.3514 10.8532 43.3724 11.4991 43.3531 12.1444V43.36H29.2096V31.6899C29.2096 28.9799 29.227 26.2699 29.1957 23.5599C28.8108 25.2655 27.8588 26.7894 26.4957 27.8818C25.1327 28.9743 23.4396 29.5704 21.6939 29.5724C19.9483 29.5744 18.2538 28.9822 16.8882 27.893C15.5227 26.8037 14.5671 25.282 14.1783 23.5774C14.1783 27.4465 14.1783 31.3173 14.1783 35.1899C14.1783 35.5387 14.1556 35.8875 14.1904 36.245C14.4572 37.28 14.931 38.2501 15.5832 39.0962C16.3698 40.07 17.4474 40.7656 18.6577 41.0808C19.9278 41.3939 21.2471 41.4532 22.54 41.2552C22.5818 41.2831 22.6254 41.3145 22.6671 41.3458C21.6876 41.7987 20.6749 42.1759 19.6379 42.4741C18.048 42.9273 16.4134 43.2051 14.7632 43.3025C13.7378 43.3792 12.7106 43.3304 11.6852 43.3443C9.25656 43.3799 6.879 42.6445 4.89314 41.2436C2.90728 39.8427 1.41503 37.8482 0.630155 35.5457C0.339599 34.6993 0.151393 33.8211 0.0695679 32.9298C-0.0227026 31.6952 0.00341165 30.457 0.00341165 29.2206V0Z" fill="#29166F"/>
<path d="M59.0278 10.2277H54.5116L54.4875 7.59529H58.2187C58.8789 7.59529 59.4142 7.51478 59.8247 7.35378C60.2434 7.19278 60.5493 6.95932 60.7425 6.65342C60.9357 6.33946 61.0323 5.95306 61.0323 5.4942C61.0323 4.97094 60.9357 4.5483 60.7425 4.2263C60.5493 3.90429 60.2434 3.67084 59.8247 3.52594C59.4142 3.37298 58.8829 3.29651 58.2308 3.29651H55.9365V17.823H52V0.241474H58.2308C59.2854 0.241474 60.2273 0.338076 61.0564 0.531279C61.8856 0.724483 62.59 1.02234 63.1696 1.42485C63.7572 1.82735 64.204 2.33049 64.5099 2.93425C64.8158 3.53801 64.9688 4.25045 64.9688 5.07156C64.9688 5.78803 64.8078 6.45619 64.4858 7.07605C64.1718 7.69591 63.6647 8.19905 62.9643 8.58545C62.2639 8.97186 61.3261 9.18117 60.1508 9.21337L59.0278 10.2277ZM58.8708 17.823H53.5094L54.9343 14.78H58.8708C59.4746 14.78 59.9656 14.6834 60.344 14.4902C60.7223 14.297 61.0001 14.0354 61.1772 13.7053C61.3543 13.3753 61.4428 13.005 61.4428 12.5944C61.4428 12.1114 61.3583 11.6928 61.1892 11.3386C61.0282 10.9844 60.7706 10.7107 60.4164 10.5175C60.0703 10.3243 59.6074 10.2277 59.0278 10.2277H55.5018L55.526 7.59529H59.8368L60.7545 8.63376C61.8735 8.6096 62.7671 8.79073 63.4352 9.17714C64.1115 9.5555 64.5985 10.0546 64.8963 10.6745C65.1942 11.2943 65.3431 11.9504 65.3431 12.6427C65.3431 13.7859 65.0976 14.7438 64.6065 15.5166C64.1155 16.2814 63.3869 16.857 62.4209 17.2434C61.463 17.6298 60.2796 17.823 58.8708 17.823Z" fill="#29166F"/>
<path d="M75.1965 3.58631L70.6562 17.823H66.454L72.9626 0.241474H75.6191L75.1965 3.58631ZM78.964 17.823L74.4116 3.58631L73.9407 0.241474H76.6335L83.1662 17.823H78.964ZM78.7708 11.2782V14.3212H69.6057V11.2782H78.7708Z" fill="#29166F"/>
<path d="M99.1296 0.241474V17.823H95.2052L88.5638 6.46022V17.823H84.6273V0.241474H88.5638L95.2172 11.6043V0.241474H99.1296Z" fill="#29166F"/>
<path d="M105.976 0.241474V17.823H102.04V0.241474H105.976ZM116.482 0.241474L109.599 9.03224L105.59 13.3793L104.877 9.72053L107.522 5.92891L111.652 0.241474H116.482ZM111.917 17.823L107.063 9.79298L110.058 7.46246L116.578 17.823H111.917Z" fill="#29166F"/>
<path d="M133.085 13.1861C133.085 12.8883 133.041 12.6226 132.952 12.3892C132.864 12.1476 132.703 11.9263 132.469 11.725C132.236 11.5238 131.906 11.3225 131.479 11.1213C131.052 10.9119 130.493 10.6986 129.801 10.4813C129.012 10.2237 128.259 9.93386 127.543 9.61185C126.834 9.28179 126.202 8.89941 125.647 8.4647C125.091 8.02999 124.653 7.52283 124.331 6.94322C124.017 6.36361 123.86 5.6874 123.86 4.91459C123.86 4.16592 124.025 3.48971 124.355 2.88595C124.685 2.28219 125.148 1.76698 125.743 1.34032C126.339 0.905611 127.039 0.575555 127.844 0.350151C128.65 0.116697 129.535 -3.05176e-05 130.501 -3.05176e-05C131.789 -3.05176e-05 132.92 0.229399 133.894 0.688257C134.876 1.13907 135.641 1.77503 136.188 2.59614C136.736 3.40921 137.01 4.3551 137.01 5.43382H133.097C133.097 4.95886 132.997 4.54025 132.795 4.178C132.602 3.80769 132.304 3.51789 131.902 3.30858C131.507 3.09928 131.012 2.99463 130.417 2.99463C129.837 2.99463 129.35 3.08318 128.955 3.26028C128.569 3.42933 128.275 3.66279 128.074 3.96064C127.881 4.2585 127.784 4.58453 127.784 4.93874C127.784 5.22049 127.857 5.4781 128.001 5.71155C128.154 5.93696 128.372 6.15028 128.654 6.35154C128.943 6.54474 129.298 6.7299 129.716 6.907C130.135 7.0841 130.614 7.25315 131.153 7.41416C132.095 7.71201 132.928 8.04207 133.653 8.40433C134.385 8.76658 135.001 9.17714 135.5 9.636C135.999 10.0949 136.374 10.6141 136.623 11.1937C136.881 11.7733 137.01 12.4294 137.01 13.162C137.01 13.9428 136.857 14.6351 136.551 15.2389C136.253 15.8427 135.818 16.3579 135.247 16.7845C134.683 17.2031 134.007 17.5211 133.218 17.7385C132.429 17.9558 131.548 18.0645 130.574 18.0645C129.688 18.0645 128.815 17.9518 127.953 17.7264C127.092 17.4929 126.311 17.1387 125.611 16.6638C124.918 16.1888 124.363 15.5851 123.944 14.8525C123.534 14.1119 123.328 13.2344 123.328 12.2201H127.265C127.265 12.7514 127.341 13.2022 127.494 13.5725C127.647 13.9348 127.865 14.2286 128.146 14.454C128.436 14.6794 128.786 14.8404 129.197 14.937C129.607 15.0336 130.066 15.0819 130.574 15.0819C131.161 15.0819 131.636 15.0014 131.998 14.8404C132.369 14.6714 132.642 14.4419 132.819 14.1521C132.997 13.8623 133.085 13.5403 133.085 13.1861Z" fill="#29166F"/>
<path d="M146.634 3.58631L142.093 17.823H137.891L144.4 0.241474H147.056L146.634 3.58631ZM150.401 17.823L145.849 3.58631L145.378 0.241474H148.071L154.603 17.823H150.401ZM150.208 11.2782V14.3212H141.043V11.2782H150.208Z" fill="#29166F"/>
<path d="M161.631 17.823H157.767L157.791 14.78H161.631C162.508 14.78 163.249 14.5788 163.853 14.1763C164.457 13.7657 164.915 13.162 165.229 12.365C165.543 11.56 165.7 10.5819 165.7 9.43072V8.62168C165.7 7.75226 165.612 6.9875 165.435 6.32739C165.258 5.65922 164.996 5.09974 164.65 4.64893C164.304 4.19812 163.873 3.86002 163.358 3.63461C162.851 3.40921 162.267 3.29651 161.607 3.29651H157.694V0.241474H161.607C162.798 0.241474 163.885 0.442728 164.867 0.845235C165.857 1.24774 166.711 1.82333 167.427 2.57199C168.152 3.32066 168.711 4.20617 169.106 5.22854C169.5 6.25091 169.697 7.39001 169.697 8.64583V9.43072C169.697 10.6785 169.5 11.8176 169.106 12.848C168.711 13.8704 168.152 14.7559 167.427 15.5046C166.711 16.2452 165.861 16.8167 164.879 17.2192C163.897 17.6217 162.814 17.823 161.631 17.823ZM160.001 0.241474V17.823H156.064V0.241474H160.001Z" fill="#29166F"/>
<path d="M184.055 14.78V17.823H174.696V14.78H184.055ZM176.037 0.241474V17.823H172.1V0.241474H176.037ZM182.847 7.31756V10.2639H174.696V7.31756H182.847ZM184.067 0.241474V3.29651H174.696V0.241474H184.067Z" fill="#29166F"/>
<path d="M185.987 0.241474H192.737C194.081 0.241474 195.244 0.442728 196.227 0.845235C197.217 1.24774 197.977 1.84345 198.509 2.63237C199.04 3.42128 199.306 4.39535 199.306 5.55457C199.306 6.52059 199.149 7.34171 198.835 8.01792C198.521 8.69413 198.078 9.25362 197.506 9.69638C196.943 10.1391 196.283 10.4974 195.526 10.7711L194.246 11.4714H188.498L188.474 8.4164H192.749C193.337 8.4164 193.824 8.31175 194.21 8.10245C194.596 7.89314 194.886 7.59931 195.079 7.22095C195.281 6.83455 195.381 6.38374 195.381 5.86853C195.381 5.33722 195.281 4.87836 195.079 4.49195C194.878 4.10555 194.58 3.81172 194.186 3.61046C193.799 3.40116 193.316 3.29651 192.737 3.29651H189.923V17.823H185.987V0.241474ZM195.719 17.823L191.771 10.0103L195.925 9.99826L199.934 17.6419V17.823H195.719Z" fill="#29166F"/>
<path d="M209.28 3.58631L204.74 17.823H200.537L207.046 0.241474H209.702L209.28 3.58631ZM213.047 17.823L208.495 3.58631L208.024 0.241474H210.717L217.249 17.823H213.047ZM212.854 11.2782V14.3212H203.689V11.2782H212.854Z" fill="#29166F"/>
<path d="M225.424 0.241474V17.823H221.5V0.241474H225.424ZM230.774 0.241474V3.29651H216.259V0.241474H230.774Z" fill="#29166F"/>
<path d="M242.39 0.241474V17.823H238.466V0.241474H242.39Z" fill="#29166F"/>
<path d="M245.566 0.241474H252.316C253.66 0.241474 254.824 0.442728 255.806 0.845235C256.796 1.24774 257.557 1.84345 258.088 2.63237C258.619 3.42128 258.885 4.39535 258.885 5.55457C258.885 6.52059 258.728 7.34171 258.414 8.01792C258.1 8.69413 257.657 9.25362 257.086 9.69638C256.522 10.1391 255.862 10.4974 255.105 10.7711L253.825 11.4714H248.078L248.053 8.4164H252.328C252.916 8.4164 253.403 8.31175 253.789 8.10245C254.176 7.89314 254.465 7.59931 254.659 7.22095C254.86 6.83455 254.96 6.38374 254.96 5.86853C254.96 5.33722 254.86 4.87836 254.659 4.49195C254.457 4.10555 254.159 3.81172 253.765 3.61046C253.379 3.40116 252.896 3.29651 252.316 3.29651H249.502V17.823H245.566V0.241474ZM255.299 17.823L251.35 10.0103L255.504 9.99826L259.513 17.6419V17.823H255.299Z" fill="#29166F"/>
<path d="M268.859 3.58631L264.319 17.823H260.117L266.625 0.241474H269.282L268.859 3.58631ZM272.626 17.823L268.074 3.58631L267.603 0.241474H270.296L276.829 17.823H272.626ZM272.433 11.2782V14.3212H263.268V11.2782H272.433Z" fill="#29166F"/>
<path d="M292.792 0.241474V17.823H288.868L282.226 6.46022V17.823H278.29V0.241474H282.226L288.88 11.6043V0.241474H292.792Z" fill="#29166F"/>
<path d="M122.436 41.2167H119.785L119.802 39.8475H122.436C123.343 39.8475 124.099 39.6586 124.704 39.2807C125.308 38.8969 125.762 38.3621 126.064 37.676C126.372 36.9841 126.526 36.176 126.526 35.2516V34.4754C126.526 33.7487 126.439 33.1033 126.265 32.5393C126.09 31.9696 125.834 31.4899 125.497 31.1004C125.16 30.705 124.747 30.4056 124.259 30.2021C123.776 29.9986 123.221 29.8969 122.593 29.8969H119.733V28.519H122.593C123.424 28.519 124.183 28.6585 124.869 28.9376C125.555 29.2108 126.145 29.6091 126.64 30.1323C127.14 30.6498 127.523 31.2777 127.791 32.0161C128.058 32.7486 128.192 33.5742 128.192 34.4928V35.2516C128.192 36.1702 128.058 36.9987 127.791 37.7371C127.523 38.4696 127.137 39.0946 126.631 39.6121C126.131 40.1295 125.526 40.5278 124.817 40.8068C124.113 41.0801 123.32 41.2167 122.436 41.2167ZM120.683 28.519V41.2167H119V28.519H120.683Z" fill="#29166F"/>
<path d="M140.497 34.4667V35.269C140.497 36.2225 140.378 37.0772 140.14 37.833C139.901 38.5888 139.558 39.2313 139.111 39.7603C138.663 40.2894 138.125 40.6935 137.497 40.9725C136.875 41.2516 136.177 41.3912 135.404 41.3912C134.654 41.3912 133.965 41.2516 133.337 40.9725C132.715 40.6935 132.175 40.2894 131.715 39.7603C131.262 39.2313 130.91 38.5888 130.66 37.833C130.41 37.0772 130.285 36.2225 130.285 35.269V34.4667C130.285 33.5132 130.407 32.6614 130.651 31.9114C130.901 31.1556 131.253 30.5132 131.706 29.9841C132.16 29.4492 132.698 29.0422 133.32 28.7632C133.948 28.4841 134.637 28.3445 135.387 28.3445C136.16 28.3445 136.858 28.4841 137.48 28.7632C138.108 29.0422 138.645 29.4492 139.093 29.9841C139.547 30.5132 139.893 31.1556 140.131 31.9114C140.375 32.6614 140.497 33.5132 140.497 34.4667ZM138.832 35.269V34.4492C138.832 33.6934 138.753 33.0248 138.596 32.4434C138.445 31.862 138.221 31.3736 137.925 30.9783C137.628 30.5829 137.265 30.2835 136.834 30.08C136.41 29.8765 135.927 29.7748 135.387 29.7748C134.863 29.7748 134.39 29.8765 133.965 30.08C133.547 30.2835 133.186 30.5829 132.884 30.9783C132.587 31.3736 132.358 31.862 132.195 32.4434C132.032 33.0248 131.951 33.6934 131.951 34.4492V35.269C131.951 36.0306 132.032 36.7051 132.195 37.2923C132.358 37.8737 132.59 38.365 132.893 38.7661C133.201 39.1615 133.564 39.4609 133.983 39.6644C134.407 39.8679 134.881 39.9696 135.404 39.9696C135.951 39.9696 136.436 39.8679 136.861 39.6644C137.285 39.4609 137.643 39.1615 137.933 38.7661C138.23 38.365 138.454 37.8737 138.605 37.2923C138.756 36.7051 138.832 36.0306 138.832 35.269Z" fill="#29166F"/>
<path d="M151.311 33.9783V35.3475H144.439V33.9783H151.311ZM144.701 28.519V41.2167H143.018V28.519H144.701ZM152.776 28.519V41.2167H151.102V28.519H152.776Z" fill="#29166F"/>
<path d="M160.625 29.644L156.422 41.2167H154.704L159.544 28.519H160.651L160.625 29.644ZM164.149 41.2167L159.936 29.644L159.91 28.519H161.018L165.875 41.2167H164.149ZM163.931 36.5161V37.894H156.797V36.5161H163.931Z" fill="#29166F"/>
<path d="M170.689 35.1556V36.4812H166.434V35.1556H170.689Z" fill="#29166F"/>
<path d="M179.027 39.7603L182.253 42.3156L181.12 43.3621L177.945 40.8417L179.027 39.7603ZM182.21 34.4667V35.269C182.21 36.2225 182.091 37.0772 181.852 37.833C181.614 38.5888 181.271 39.2313 180.823 39.7603C180.375 40.2894 179.838 40.6935 179.21 40.9725C178.588 41.2516 177.89 41.3912 177.117 41.3912C176.367 41.3912 175.678 41.2516 175.05 40.9725C174.428 40.6935 173.887 40.2894 173.428 39.7603C172.974 39.2313 172.623 38.5888 172.373 37.833C172.122 37.0772 171.997 36.2225 171.997 35.269V34.4667C171.997 33.5132 172.12 32.6614 172.364 31.9114C172.614 31.1556 172.966 30.5132 173.419 29.9841C173.873 29.4492 174.41 29.0422 175.032 28.7632C175.66 28.4841 176.349 28.3445 177.099 28.3445C177.873 28.3445 178.573 28.4841 179.201 28.7632C179.829 29.0422 180.367 29.4492 180.814 29.9841C181.262 30.5132 181.605 31.1556 181.844 31.9114C182.088 32.6614 182.21 33.5132 182.21 34.4667ZM180.544 35.269V34.4492C180.544 33.6934 180.466 33.0248 180.309 32.4434C180.157 31.862 179.934 31.3736 179.637 30.9783C179.341 30.5829 178.98 30.2835 178.556 30.08C178.131 29.8765 177.646 29.7748 177.099 29.7748C176.582 29.7748 176.111 29.8765 175.686 30.08C175.268 30.2835 174.907 30.5829 174.605 30.9783C174.303 31.3736 174.07 31.862 173.907 32.4434C173.745 33.0248 173.663 33.6934 173.663 34.4492V35.269C173.663 36.0306 173.745 36.7051 173.907 37.2923C174.07 37.8737 174.303 38.365 174.605 38.7661C174.913 39.1615 175.279 39.4609 175.704 39.6644C176.128 39.8679 176.599 39.9696 177.117 39.9696C177.663 39.9696 178.149 39.8679 178.573 39.6644C178.998 39.4609 179.355 39.1615 179.646 38.7661C179.942 38.365 180.166 37.8737 180.317 37.2923C180.468 36.7051 180.544 36.0306 180.544 35.269Z" fill="#29166F"/>
<path d="M189.509 29.644L185.306 41.2167H183.588L188.428 28.519H189.535L189.509 29.644ZM193.033 41.2167L188.82 29.644L188.794 28.519H189.902L194.759 41.2167H193.033ZM192.815 36.5161V37.894H185.681V36.5161H192.815Z" fill="#29166F"/>
<path d="M200.018 28.519V41.2167H198.361V28.519H200.018ZM204.099 28.519V29.8969H194.288V28.519H204.099Z" fill="#29166F"/>
<path d="M209.986 29.644L205.783 41.2167H204.065L208.905 28.519H210.012L209.986 29.644ZM213.509 41.2167L209.297 29.644L209.271 28.519H210.379L215.236 41.2167H213.509ZM213.291 36.5161V37.894H206.158V36.5161H213.291Z" fill="#29166F"/>
<path d="M216.937 28.519H221.14C222.094 28.519 222.899 28.6643 223.556 28.955C224.219 29.2457 224.722 29.6759 225.065 30.2457C225.414 30.8097 225.588 31.5045 225.588 32.33C225.588 32.9114 225.469 33.4434 225.23 33.926C224.998 34.4027 224.661 34.8097 224.219 35.1469C223.783 35.4783 223.26 35.7254 222.649 35.8882L222.178 36.0713H218.228L218.21 34.7021H221.193C221.797 34.7021 222.3 34.5975 222.701 34.3882C223.103 34.1731 223.405 33.8853 223.608 33.5248C223.812 33.1643 223.914 32.7661 223.914 32.33C223.914 31.8417 223.818 31.4143 223.626 31.0481C223.434 30.6818 223.132 30.3998 222.719 30.2021C222.312 29.9986 221.786 29.8969 221.14 29.8969H218.62V41.2167H216.937V28.519ZM224.358 41.2167L221.271 35.4609L223.024 35.4522L226.155 41.1121V41.2167H224.358Z" fill="#29166F"/>
</svg>
