<svg width="183" height="27" viewBox="0 0 183 27" fill="none" xmlns="http://www.w3.org/2000/svg">
<path d="M0.00212431 0H8.82936C8.82936 4.17837 8.82936 8.35674 8.82936 12.5351C8.96837 11.9736 9.20149 11.4397 9.5188 10.9563C10.0414 10.1754 10.7786 9.56293 11.6413 9.19285C12.288 8.91961 12.9866 8.79187 13.6879 8.81865C14.3892 8.84542 15.0761 9.02606 15.7001 9.3478C16.3241 9.66955 16.87 10.1246 17.2993 10.6807C17.7286 11.2369 18.0308 11.8807 18.1845 12.5666C18.1986 10.1864 18.1845 7.80512 18.191 5.42493C18.1834 5.09917 18.2051 4.77342 18.1813 4.44006C17.9979 3.68518 17.6277 2.98872 17.1048 2.41494C16.4793 1.74388 15.5872 1.37469 14.6853 1.27588C14.0471 1.21377 13.404 1.22616 12.7687 1.3128C14.296 0.580153 15.9494 0.147771 17.6392 0.0390908C18.3601 -0.0238888 19.0843 0.0108585 19.8073 0.00108585C21.571 -0.00646818 23.2754 0.63788 24.5943 1.81075C25.9132 2.98363 26.7539 4.6026 26.9554 6.35768C26.9933 6.75788 27.0064 7.16007 26.9944 7.56189V26.9987H18.1878V19.7322C18.1878 18.0447 18.1986 16.3573 18.1791 14.6699C17.9394 15.7319 17.3466 16.6808 16.4979 17.361C15.6492 18.0412 14.595 18.4124 13.508 18.4136C12.4211 18.4149 11.366 18.0462 10.5157 17.3679C9.66539 16.6897 9.0704 15.7422 8.82827 14.6808C8.82827 17.0899 8.82827 19.5001 8.82827 21.9115C8.82827 22.1286 8.81418 22.3458 8.83586 22.5684C9.00196 23.2129 9.29699 23.8169 9.70308 24.3438C10.1929 24.9501 10.8639 25.3832 11.6175 25.5795C12.4083 25.7745 13.2298 25.8114 14.0349 25.6881C14.0609 25.7054 14.088 25.725 14.114 25.7445C13.504 26.0265 12.8735 26.2614 12.2278 26.4471C11.2378 26.7293 10.22 26.9022 9.19251 26.9629C8.55402 27.0106 7.91444 26.9802 7.27595 26.9889C5.76372 27.011 4.2833 26.5532 3.04678 25.6809C1.81026 24.8086 0.881084 23.5666 0.392374 22.133C0.211455 21.606 0.094267 21.0591 0.0433173 20.5042C-0.0141361 19.7354 0.00212431 18.9645 0.00212431 18.1946V0Z" fill="#29166F"/>
<path d="M36.7544 6.36842H33.9424L33.9273 4.72932H36.2506C36.6617 4.72932 36.995 4.6792 37.2506 4.57895C37.5113 4.4787 37.7018 4.33333 37.8221 4.14286C37.9424 3.94737 38.0025 3.70677 38.0025 3.42105C38.0025 3.09524 37.9424 2.83208 37.8221 2.63158C37.7018 2.43108 37.5113 2.28571 37.2506 2.19549C36.995 2.10025 36.6642 2.05263 36.2582 2.05263H34.8296V11.0977H32.3785V0.150376H36.2582C36.9148 0.150376 37.5013 0.210526 38.0176 0.330827C38.5339 0.451128 38.9724 0.636591 39.3334 0.887218C39.6993 1.13784 39.9775 1.45113 40.1679 1.82707C40.3584 2.20301 40.4537 2.64662 40.4537 3.15789C40.4537 3.60401 40.3534 4.02005 40.1529 4.40601C39.9574 4.79198 39.6416 5.10526 39.2055 5.34586C38.7694 5.58647 38.1855 5.71679 37.4537 5.73684L36.7544 6.36842ZM36.6567 11.0977H33.3183L34.2055 9.20301H36.6567C37.0326 9.20301 37.3384 9.14286 37.574 9.02256C37.8095 8.90226 37.9825 8.73935 38.0928 8.53383C38.203 8.32832 38.2582 8.09774 38.2582 7.8421C38.2582 7.54135 38.2055 7.2807 38.1003 7.06015C38 6.8396 37.8396 6.66917 37.6191 6.54887C37.4035 6.42857 37.1153 6.36842 36.7544 6.36842H34.5589L34.574 4.72932H37.2582L37.8296 5.37594C38.5263 5.3609 39.0827 5.47368 39.4988 5.71429C39.9198 5.94987 40.2231 6.26065 40.4085 6.64662C40.594 7.03258 40.6867 7.4411 40.6867 7.87218C40.6867 8.58396 40.5339 9.18045 40.2281 9.66165C39.9223 10.1378 39.4687 10.4962 38.8672 10.7368C38.2707 10.9774 37.5339 11.0977 36.6567 11.0977Z" fill="#29166F"/>
<path d="M46.8221 2.23308L43.995 11.0977H41.3785L45.4311 0.150376H47.0852L46.8221 2.23308ZM49.1679 11.0977L46.3334 2.23308L46.0401 0.150376H47.7168L51.7845 11.0977H49.1679ZM49.0476 7.02256V8.91729H43.3409V7.02256H49.0476Z" fill="#29166F"/>
<path d="M61.7243 0.150376V11.0977H59.2807L55.1454 4.02256V11.0977H52.6943V0.150376H55.1454L59.2882 7.22556V0.150376H61.7243Z" fill="#29166F"/>
<path d="M65.9875 0.150376V11.0977H63.5364V0.150376H65.9875ZM72.5288 0.150376L68.2431 5.62406L65.7469 8.33083L65.3033 6.05263L66.9499 3.69173L69.5213 0.150376H72.5288ZM69.6867 11.0977L66.6642 6.09774L68.5288 4.64662L72.589 11.0977H69.6867Z" fill="#29166F"/>
<path d="M82.8672 8.21053C82.8672 8.02506 82.8396 7.85965 82.7845 7.71429C82.7293 7.56391 82.6291 7.42606 82.4837 7.30075C82.3384 7.17544 82.1329 7.05013 81.8672 6.92481C81.6015 6.79449 81.2532 6.66165 80.8221 6.52632C80.3308 6.36591 79.8622 6.18546 79.4161 5.98496C78.975 5.77945 78.5815 5.54135 78.2356 5.27068C77.8897 5 77.6166 4.68421 77.4161 4.32331C77.2206 3.96241 77.1228 3.54135 77.1228 3.06015C77.1228 2.59398 77.2256 2.17293 77.4311 1.79699C77.6366 1.42105 77.9248 1.10025 78.2958 0.834586C78.6667 0.56391 79.1028 0.358396 79.604 0.218045C80.1053 0.0726817 80.6567 0 81.2582 0C82.0602 0 82.7644 0.142857 83.3709 0.428571C83.9825 0.709273 84.4587 1.10526 84.7995 1.61654C85.1404 2.12281 85.3108 2.71178 85.3108 3.38346H82.8747C82.8747 3.08772 82.8121 2.82707 82.6867 2.6015C82.5664 2.37093 82.381 2.19048 82.1303 2.06015C81.8847 1.92982 81.5765 1.86466 81.2055 1.86466C80.8446 1.86466 80.5414 1.9198 80.2958 2.03008C80.0552 2.13534 79.8722 2.2807 79.7469 2.46617C79.6266 2.65163 79.5664 2.85464 79.5664 3.07519C79.5664 3.25063 79.6115 3.41103 79.7018 3.55639C79.797 3.69674 79.9324 3.82957 80.1078 3.95489C80.2882 4.07519 80.5088 4.19048 80.7694 4.30075C81.0301 4.41103 81.3283 4.51629 81.6642 4.61654C82.2506 4.802 82.7694 5.00752 83.2206 5.23308C83.6767 5.45865 84.0602 5.71429 84.3709 6C84.6817 6.28571 84.9148 6.60902 85.0702 6.96992C85.2306 7.33083 85.3108 7.73935 85.3108 8.19549C85.3108 8.6817 85.2156 9.11278 85.0251 9.48872C84.8396 9.86466 84.5689 10.1855 84.2131 10.4511C83.8622 10.7118 83.4411 10.9098 82.9499 11.0451C82.4587 11.1805 81.9098 11.2481 81.3033 11.2481C80.7519 11.2481 80.208 11.1779 79.6717 11.0376C79.1354 10.8922 78.6491 10.6717 78.2131 10.3759C77.782 10.0802 77.4361 9.70426 77.1755 9.24812C76.9198 8.78697 76.792 8.2406 76.792 7.60902H79.2431C79.2431 7.93985 79.2907 8.22055 79.386 8.45113C79.4812 8.67669 79.6166 8.85965 79.792 9C79.9725 9.14035 80.1905 9.2406 80.4461 9.30075C80.7018 9.3609 80.9875 9.39098 81.3033 9.39098C81.6692 9.39098 81.9649 9.34085 82.1905 9.2406C82.4211 9.13534 82.5915 8.99248 82.7018 8.81203C82.8121 8.63158 82.8672 8.43108 82.8672 8.21053Z" fill="#29166F"/>
<path d="M91.3033 2.23308L88.4762 11.0977H85.8597L89.9123 0.150376H91.5664L91.3033 2.23308ZM93.6491 11.0977L90.8146 2.23308L90.5213 0.150376H92.198L96.2657 11.0977H93.6491ZM93.5288 7.02256V8.91729H87.8221V7.02256H93.5288Z" fill="#29166F"/>
<path d="M100.642 11.0977H98.2356L98.2506 9.20301H100.642C101.188 9.20301 101.649 9.07769 102.025 8.82707C102.401 8.57143 102.687 8.19549 102.882 7.69925C103.078 7.19799 103.175 6.58897 103.175 5.87218V5.36842C103.175 4.82707 103.12 4.35088 103.01 3.93985C102.9 3.52381 102.737 3.17544 102.521 2.89474C102.306 2.61403 102.038 2.40351 101.717 2.26316C101.401 2.12281 101.038 2.05263 100.627 2.05263H98.1905V0.150376H100.627C101.368 0.150376 102.045 0.275689 102.657 0.526316C103.273 0.776942 103.805 1.13534 104.251 1.6015C104.702 2.06767 105.05 2.61905 105.296 3.25564C105.541 3.89223 105.664 4.6015 105.664 5.38346V5.87218C105.664 6.64912 105.541 7.3584 105.296 8C105.05 8.63659 104.702 9.18797 104.251 9.65413C103.805 10.1153 103.276 10.4712 102.664 10.7218C102.053 10.9724 101.378 11.0977 100.642 11.0977ZM99.6266 0.150376V11.0977H97.1755V0.150376H99.6266Z" fill="#29166F"/>
<path d="M114.604 9.20301V11.0977H108.777V9.20301H114.604ZM109.612 0.150376V11.0977H107.16V0.150376H109.612ZM113.852 4.55639V6.39098H108.777V4.55639H113.852ZM114.612 0.150376V2.05263H108.777V0.150376H114.612Z" fill="#29166F"/>
<path d="M115.807 0.150376H120.01C120.847 0.150376 121.571 0.275689 122.183 0.526316C122.8 0.776942 123.273 1.14787 123.604 1.6391C123.935 2.13033 124.1 2.73684 124.1 3.45865C124.1 4.06015 124.003 4.57143 123.807 4.99248C123.612 5.41353 123.336 5.7619 122.98 6.03759C122.629 6.31328 122.218 6.53634 121.747 6.70677L120.95 7.14286H117.371L117.356 5.2406H120.018C120.383 5.2406 120.687 5.17544 120.927 5.04511C121.168 4.91479 121.348 4.73183 121.469 4.49624C121.594 4.25564 121.657 3.97494 121.657 3.65414C121.657 3.32331 121.594 3.03759 121.469 2.79699C121.343 2.55639 121.158 2.37343 120.912 2.24812C120.672 2.11779 120.371 2.05263 120.01 2.05263H118.258V11.0977H115.807V0.150376ZM121.867 11.0977L119.409 6.23308L121.995 6.22556L124.491 10.985V11.0977H121.867Z" fill="#29166F"/>
<path d="M130.311 2.23308L127.484 11.0977H124.867L128.92 0.150376H130.574L130.311 2.23308ZM132.657 11.0977L129.822 2.23308L129.529 0.150376H131.206L135.273 11.0977H132.657ZM132.536 7.02256V8.91729H126.83V7.02256H132.536Z" fill="#29166F"/>
<path d="M140.363 0.150376V11.0977H137.92V0.150376H140.363ZM143.694 0.150376V2.05263H134.657V0.150376H143.694Z" fill="#29166F"/>
<path d="M150.927 0.150376V11.0977H148.484V0.150376H150.927Z" fill="#29166F"/>
<path d="M152.905 0.150376H157.108C157.945 0.150376 158.669 0.275689 159.281 0.526316C159.897 0.776942 160.371 1.14787 160.702 1.6391C161.033 2.13033 161.198 2.73684 161.198 3.45865C161.198 4.06015 161.1 4.57143 160.905 4.99248C160.709 5.41353 160.434 5.7619 160.078 6.03759C159.727 6.31328 159.316 6.53634 158.845 6.70677L158.048 7.14286H154.469L154.454 5.2406H157.115C157.481 5.2406 157.784 5.17544 158.025 5.04511C158.266 4.91479 158.446 4.73183 158.566 4.49624C158.692 4.25564 158.754 3.97494 158.754 3.65414C158.754 3.32331 158.692 3.03759 158.566 2.79699C158.441 2.55639 158.256 2.37343 158.01 2.24812C157.769 2.11779 157.469 2.05263 157.108 2.05263H155.356V11.0977H152.905V0.150376ZM158.965 11.0977L156.506 6.23308L159.093 6.22556L161.589 10.985V11.0977H158.965Z" fill="#29166F"/>
<path d="M167.409 2.23308L164.581 11.0977H161.965L166.018 0.150376H167.672L167.409 2.23308ZM169.754 11.0977L166.92 2.23308L166.627 0.150376H168.303L172.371 11.0977H169.754ZM169.634 7.02256V8.91729H163.927V7.02256H169.634Z" fill="#29166F"/>
<path d="M182.311 0.150376V11.0977H179.867L175.732 4.02256V11.0977H173.281V0.150376H175.732L179.875 7.22556V0.150376H182.311Z" fill="#29166F"/>
<path d="M76.2364 25.6641H74.5856L74.5965 24.8115H76.2364C76.8011 24.8115 77.2718 24.6939 77.6483 24.4586C78.0248 24.2196 78.3071 23.8866 78.4954 23.4594C78.6872 23.0286 78.7832 22.5254 78.7832 21.9498V21.4665C78.7832 21.014 78.7289 20.6122 78.6203 20.261C78.5117 19.9062 78.3524 19.6076 78.1424 19.365C77.9324 19.1188 77.6754 18.9324 77.3713 18.8057C77.0708 18.679 76.7251 18.6156 76.3341 18.6156H74.553V17.7577H76.3341C76.8518 17.7577 77.3243 17.8445 77.7514 18.0183C78.1786 18.1885 78.5461 18.4364 78.8538 18.7622C79.1651 19.0844 79.404 19.4754 79.5706 19.9352C79.7371 20.3913 79.8204 20.9054 79.8204 21.4774V21.9498C79.8204 22.5218 79.7371 23.0377 79.5706 23.4974C79.404 23.9536 79.1633 24.3427 78.8483 24.6649C78.537 24.9871 78.1605 25.2351 77.7188 25.4089C77.2808 25.579 76.7867 25.6641 76.2364 25.6641ZM75.1449 17.7577V25.6641H74.0969V17.7577H75.1449Z" fill="#29166F"/>
<path d="M87.4824 21.4611V21.9607C87.4824 22.5544 87.4082 23.0865 87.2598 23.5572C87.1114 24.0278 86.8978 24.4278 86.619 24.7572C86.3403 25.0867 86.0054 25.3383 85.6144 25.512C85.2271 25.6858 84.7926 25.7727 84.3112 25.7727C83.8442 25.7727 83.4152 25.6858 83.0242 25.512C82.6368 25.3383 82.3002 25.0867 82.0142 24.7572C81.7318 24.4278 81.5128 24.0278 81.3571 23.5572C81.2014 23.0865 81.1236 22.5544 81.1236 21.9607V21.4611C81.1236 20.8674 81.1996 20.337 81.3517 19.87C81.5073 19.3994 81.7264 18.9994 82.0087 18.6699C82.2911 18.3369 82.626 18.0835 83.0133 17.9097C83.4043 17.7359 83.8333 17.649 84.3003 17.649C84.7818 17.649 85.2162 17.7359 85.6036 17.9097C85.9945 18.0835 86.3294 18.3369 86.6082 18.6699C86.8905 18.9994 87.1059 19.3994 87.2544 19.87C87.4064 20.337 87.4824 20.8674 87.4824 21.4611ZM86.4452 21.9607V21.4502C86.4452 20.9796 86.3964 20.5633 86.2986 20.2013C86.2045 19.8392 86.0651 19.5352 85.8805 19.289C85.6959 19.0428 85.4696 18.8564 85.2017 18.7297C84.9375 18.603 84.637 18.5396 84.3003 18.5396C83.9745 18.5396 83.6794 18.603 83.4152 18.7297C83.1545 18.8564 82.9301 19.0428 82.7418 19.289C82.5572 19.5352 82.4142 19.8392 82.3128 20.2013C82.2115 20.5633 82.1608 20.9796 82.1608 21.4502V21.9607C82.1608 22.4349 82.2115 22.8548 82.3128 23.2205C82.4142 23.5825 82.559 23.8884 82.7473 24.1382C82.9391 24.3844 83.1654 24.5708 83.426 24.6975C83.6903 24.8242 83.9853 24.8876 84.3112 24.8876C84.6515 24.8876 84.9537 24.8242 85.218 24.6975C85.4823 24.5708 85.7049 24.3844 85.8859 24.1382C86.0706 23.8884 86.2099 23.5825 86.3041 23.2205C86.3982 22.8548 86.4452 22.4349 86.4452 21.9607Z" fill="#29166F"/>
<path d="M94.2159 21.157V22.0095H89.9369V21.157H94.2159ZM90.0998 17.7577V25.6641H89.0518V17.7577H90.0998ZM95.1282 17.7577V25.6641H94.0856V17.7577H95.1282Z" fill="#29166F"/>
<path d="M100.015 18.4582L97.398 25.6641H96.3283L99.3421 17.7577H100.032L100.015 18.4582ZM102.209 25.6641L99.5864 18.4582L99.5701 17.7577H100.26L103.284 25.6641H102.209ZM102.073 22.7372V23.5952H97.6315V22.7372H102.073Z" fill="#29166F"/>
<path d="M106.282 21.8901V22.7155H103.632V21.8901H106.282Z" fill="#29166F"/>
<path d="M111.473 24.7572L113.482 26.3483L112.776 26.9999L110.8 25.4306L111.473 24.7572ZM113.455 21.4611V21.9607C113.455 22.5544 113.381 23.0865 113.233 23.5572C113.084 24.0278 112.871 24.4278 112.592 24.7572C112.313 25.0867 111.978 25.3383 111.587 25.512C111.2 25.6858 110.765 25.7727 110.284 25.7727C109.817 25.7727 109.388 25.6858 108.997 25.512C108.61 25.3383 108.273 25.0867 107.987 24.7572C107.705 24.4278 107.486 24.0278 107.33 23.5572C107.174 23.0865 107.096 22.5544 107.096 21.9607V21.4611C107.096 20.8674 107.172 20.337 107.325 19.87C107.48 19.3994 107.699 18.9994 107.982 18.6699C108.264 18.3369 108.599 18.0835 108.986 17.9097C109.377 17.7359 109.806 17.649 110.273 17.649C110.755 17.649 111.191 17.7359 111.582 17.9097C111.973 18.0835 112.308 18.3369 112.586 18.6699C112.865 18.9994 113.079 19.3994 113.227 19.87C113.379 20.337 113.455 20.8674 113.455 21.4611ZM112.418 21.9607V21.4502C112.418 20.9796 112.369 20.5633 112.271 20.2013C112.177 19.8392 112.038 19.5352 111.853 19.289C111.669 19.0428 111.444 18.8564 111.18 18.7297C110.916 18.603 110.613 18.5396 110.273 18.5396C109.951 18.5396 109.658 18.603 109.393 18.7297C109.133 18.8564 108.908 19.0428 108.72 19.289C108.532 19.5352 108.387 19.8392 108.286 20.2013C108.184 20.5633 108.134 20.9796 108.134 21.4502V21.9607C108.134 22.4349 108.184 22.8548 108.286 23.2205C108.387 23.5825 108.532 23.8884 108.72 24.1382C108.912 24.3844 109.14 24.5708 109.404 24.6975C109.669 24.8242 109.962 24.8876 110.284 24.8876C110.624 24.8876 110.927 24.8242 111.191 24.6975C111.455 24.5708 111.678 24.3844 111.859 24.1382C112.043 23.8884 112.183 23.5825 112.277 23.2205C112.371 22.8548 112.418 22.4349 112.418 21.9607Z" fill="#29166F"/>
<path d="M118 18.4582L115.383 25.6641H114.313L117.327 17.7577H118.017L118 18.4582ZM120.194 25.6641L117.571 18.4582L117.555 17.7577H118.245L121.269 25.6641H120.194ZM120.058 22.7372V23.5952H115.617V22.7372H120.058Z" fill="#29166F"/>
<path d="M124.544 17.7577V25.6641H123.512V17.7577H124.544ZM127.085 17.7577V18.6156H120.976V17.7577H127.085Z" fill="#29166F"/>
<path d="M130.751 18.4582L128.133 25.6641H127.063L130.077 17.7577H130.767L130.751 18.4582ZM132.944 25.6641L130.322 18.4582L130.305 17.7577H130.995L134.02 25.6641H132.944ZM132.809 22.7372V23.5952H128.367V22.7372H132.809Z" fill="#29166F"/>
<path d="M135.078 17.7577H137.696C138.29 17.7577 138.791 17.8482 139.2 18.0292C139.613 18.2102 139.926 18.4781 140.139 18.8328C140.357 19.184 140.465 19.6166 140.465 20.1307C140.465 20.4927 140.391 20.8239 140.243 21.1244C140.098 21.4213 139.888 21.6747 139.613 21.8846C139.341 22.091 139.015 22.2448 138.635 22.3462L138.342 22.4602H135.882L135.871 21.6077H137.728C138.105 21.6077 138.418 21.5425 138.668 21.4122C138.918 21.2783 139.106 21.0991 139.233 20.8746C139.359 20.6502 139.423 20.4022 139.423 20.1307C139.423 19.8266 139.363 19.5605 139.243 19.3324C139.124 19.1044 138.936 18.9288 138.679 18.8057C138.425 18.679 138.098 18.6156 137.696 18.6156H136.127V25.6641H135.078V17.7577ZM139.7 25.6641L137.777 22.0801L138.869 22.0747L140.818 25.5989V25.6641H139.7Z" fill="#29166F"/>
</svg>
