<svg width="58" height="58" viewBox="0 0 58 58" fill="none" xmlns="http://www.w3.org/2000/svg">
<path d="M0.00456355 0H18.9677C18.9677 8.97619 18.9677 17.9524 18.9677 26.9286C19.2663 25.7222 19.7671 24.5754 20.4488 23.5368C21.5714 21.8594 23.1552 20.5436 25.0085 19.7486C26.3977 19.1616 27.8985 18.8872 29.4051 18.9447C30.9117 19.0022 32.3873 19.3902 33.7279 20.0814C35.0684 20.7726 36.2411 21.7501 37.1633 22.9449C38.0855 24.1397 38.7346 25.5227 39.0649 26.9962C39.0952 21.883 39.0649 16.7674 39.0789 11.6541C39.0626 10.9543 39.1092 10.2545 39.0579 9.53837C38.6641 7.91671 37.8688 6.42053 36.7455 5.1879C35.4018 3.7463 33.4852 2.95319 31.5477 2.74091C30.1768 2.60748 28.7951 2.6341 27.4304 2.82022C30.7114 1.24631 34.2632 0.317448 37.8935 0.0839768C39.4422 -0.0513192 40.9978 0.0233269 42.5511 0.00233269C46.3398 -0.0138953 50.0015 1.37033 52.8348 3.88995C55.6682 6.40958 57.4741 9.88754 57.9069 13.6579C57.9885 14.5176 58.0165 15.3816 57.9908 16.2449V58H39.0719V42.3896C39.0719 38.7646 39.0952 35.1396 39.0533 31.5146C38.5384 33.796 37.2649 35.8345 35.4417 37.2958C33.6184 38.757 31.3536 39.5544 29.0186 39.5571C26.6836 39.5598 24.4169 38.7677 22.5903 37.3107C20.7637 35.8537 19.4855 33.8182 18.9654 31.538C18.9654 36.7134 18.9654 41.8912 18.9654 47.0713C18.9654 47.5379 18.9351 48.0044 18.9817 48.4826C19.3385 49.8672 19.9723 51.1647 20.8447 52.2966C21.8969 53.5992 23.3383 54.5295 24.9573 54.9512C26.6562 55.37 28.4209 55.4493 30.1504 55.1844C30.2063 55.2218 30.2645 55.2638 30.3204 55.3057C29.0101 55.9115 27.6554 56.416 26.2684 56.815C24.1416 57.4212 21.9551 57.7927 19.7478 57.923C18.3762 58.0257 17.0022 57.9603 15.6306 57.979C12.3819 58.0265 9.20161 57.0429 6.54525 55.169C3.88889 53.2951 1.89279 50.6271 0.842918 47.5472C0.45426 46.4151 0.202509 45.2404 0.0930566 44.0482C-0.0303679 42.3966 0.00456355 40.7404 0.00456355 39.0866V0Z" fill="white"/>
</svg>
