<svg width="42" height="41" viewBox="0 0 42 41" fill="none" xmlns="http://www.w3.org/2000/svg">
<path opacity="0.3" d="M21.8667 31.0667C19.3734 31.0667 17.3334 29.0867 17.3334 26.6667V13.4667C17.3334 11.0467 19.3734 9.06672 21.8667 9.06672H35.4667V4.66672H3.7334V35.4667H35.4667V31.0667H21.8667Z" fill="#29166F"/>
<path d="M39.7895 9.54282V4.45926C39.7895 2.00667 37.8 0 35.3684 0H4.42105C1.96737 0 0 2.00667 0 4.45926V35.6741C0 38.1267 1.96737 40.1333 4.42105 40.1333H35.3684C37.8 40.1333 39.7895 38.1267 39.7895 35.6741V30.5905C41.0937 29.8101 42 28.4055 42 26.7556V13.3778C42 11.7279 41.0937 10.3009 39.7895 9.54282ZM37.5789 13.3778V26.7556H22.1053V13.3778H37.5789ZM4.42105 35.6741V4.45926H35.3684V8.91852H22.1053C19.6737 8.91852 17.6842 10.9252 17.6842 13.3778V26.7556C17.6842 29.2081 19.6737 31.2148 22.1053 31.2148H35.3684V35.6741H4.42105Z" fill="#29166F"/>
<path d="M28.4669 23.3332C30.271 23.3332 31.7335 21.8707 31.7335 20.0666C31.7335 18.2624 30.271 16.7999 28.4669 16.7999C26.6627 16.7999 25.2002 18.2624 25.2002 20.0666C25.2002 21.8707 26.6627 23.3332 28.4669 23.3332Z" fill="#29166F"/>
</svg>
