<svg width="42" height="40" viewBox="0 0 42 40" fill="none" xmlns="http://www.w3.org/2000/svg">
<path opacity="0.3" d="M4.2002 31.5H37.8002V35.7H4.2002V31.5ZM31.5002 16.8H27.3002V12.6H14.7002V16.8H10.5002V12.6H4.2002V25.2H37.8002V12.6H31.5002V16.8Z" fill="#29166F"/>
<path d="M37.8 8.4H31.5V4.2C31.5 1.869 29.631 0 27.3 0H14.7C12.369 0 10.5 1.869 10.5 4.2V8.4H4.2C1.869 8.4 0 10.269 0 12.6V35.7C0 38.031 1.869 39.9 4.2 39.9H37.8C40.131 39.9 42 38.031 42 35.7V12.6C42 10.269 40.131 8.4 37.8 8.4ZM14.7 4.2H27.3V8.4H14.7V4.2ZM37.8 35.7H4.2V31.5H37.8V35.7ZM37.8 25.2H4.2V12.6H10.5V16.8H14.7V12.6H27.3V16.8H31.5V12.6H37.8V25.2Z" fill="#29166F"/>
</svg>
