<svg width="42" height="31" viewBox="0 0 42 31" fill="none" xmlns="http://www.w3.org/2000/svg">
<path opacity="0.3" d="M30.5456 3.81824H3.81836V19.091H30.5456V3.81824ZM17.182 17.1819C14.0129 17.1819 11.4547 14.6237 11.4547 11.4546C11.4547 8.28551 14.0129 5.72733 17.182 5.72733C20.3511 5.72733 22.9093 8.28551 22.9093 11.4546C22.9093 14.6237 20.3511 17.1819 17.182 17.1819Z" fill="#29166F"/>
<path d="M30.5455 0H3.81818C1.71818 0 0 1.71818 0 3.81818V19.0909C0 21.1909 1.71818 22.9091 3.81818 22.9091H30.5455C32.6455 22.9091 34.3636 21.1909 34.3636 19.0909V3.81818C34.3636 1.71818 32.6455 0 30.5455 0ZM3.81818 19.0909V3.81818H30.5455V19.0909H3.81818Z" fill="#29166F"/>
<path d="M17.1819 5.72729C14.0128 5.72729 11.4546 8.28548 11.4546 11.4546C11.4546 14.6237 14.0128 17.1818 17.1819 17.1818C20.351 17.1818 22.9091 14.6237 22.9091 11.4546C22.9091 8.28548 20.351 5.72729 17.1819 5.72729Z" fill="#29166F"/>
<path d="M41.9998 5.72729V26.7273C41.9998 28.8273 40.2816 30.5455 38.1816 30.5455H5.72705C5.72705 28.6364 5.72705 28.8273 5.72705 26.7273H38.1816V5.72729C40.2816 5.72729 40.0907 5.72729 41.9998 5.72729Z" fill="#29166F"/>
</svg>
