<svg width="42" height="42" viewBox="0 0 42 42" fill="none" xmlns="http://www.w3.org/2000/svg">
<path opacity="0.3" d="M21.0002 4.20001C11.7392 4.20001 4.2002 11.739 4.2002 21C4.2002 30.261 11.7392 37.8 21.0002 37.8C30.2612 37.8 37.8002 30.261 37.8002 21C37.8002 11.739 30.2612 4.20001 21.0002 4.20001ZM22.8482 33.096V35.7H19.1732V32.991C17.6192 32.613 14.1542 31.374 12.8312 26.775L16.2962 25.368C16.4222 25.83 17.5142 29.757 21.3362 29.757C23.2892 29.757 25.4942 28.749 25.4942 26.376C25.4942 24.36 24.0242 23.31 20.7062 22.113C18.3962 21.294 13.6712 19.95 13.6712 15.162C13.6712 14.952 13.6922 10.122 19.1732 8.94601V6.30001H22.8482V8.90401C26.7122 9.57601 28.1192 12.663 28.4342 13.587L25.1162 14.994C24.8852 14.259 23.8772 12.18 21.1262 12.18C19.6562 12.18 17.3252 12.957 17.3252 15.099C17.3252 17.094 19.1312 17.85 22.8692 19.089C27.9092 20.832 29.1902 23.394 29.1902 26.334C29.1902 31.857 23.9402 32.907 22.8482 33.096Z" fill="#29166F"/>
<path d="M22.8691 19.11C19.1311 17.871 17.3251 17.094 17.3251 15.12C17.3251 12.978 19.6561 12.201 21.1261 12.201C23.8771 12.201 24.8851 14.28 25.1161 15.015L28.4341 13.608C28.1191 12.684 26.7121 9.59699 22.8481 8.92499V6.29999H19.1731V8.94599C13.7131 10.122 13.6711 14.931 13.6711 15.162C13.6711 19.929 18.3961 21.273 20.7061 22.113C24.0241 23.289 25.4941 24.36 25.4941 26.376C25.4941 28.749 23.2891 29.757 21.3361 29.757C17.5141 29.757 16.4221 25.83 16.2961 25.368L12.8101 26.775C14.1331 31.374 17.5981 32.613 19.1521 32.991V35.7H22.8271V33.096C23.9191 32.907 29.1691 31.857 29.1691 26.334C29.1901 23.415 27.9091 20.853 22.8691 19.11Z" fill="#29166F"/>
<path d="M21 0C9.408 0 0 9.408 0 21C0 32.592 9.408 42 21 42C32.592 42 42 32.592 42 21C42 9.408 32.592 0 21 0ZM21 37.8C11.739 37.8 4.2 30.261 4.2 21C4.2 11.739 11.739 4.2 21 4.2C30.261 4.2 37.8 11.739 37.8 21C37.8 30.261 30.261 37.8 21 37.8Z" fill="#29166F"/>
</svg>
