<svg width="42" height="40" viewBox="0 0 42 40" fill="none" xmlns="http://www.w3.org/2000/svg">
<g opacity="0.3">
<path opacity="0.3" d="M35.7002 15.7499L28.3502 8.39992C28.3502 7.03492 28.5392 5.69092 28.8962 4.38892C26.8592 4.91392 25.2002 6.42592 24.5072 8.39992H11.5502C7.4972 8.39992 4.2002 11.6969 4.2002 15.7499C4.2002 19.6979 6.7622 29.7149 8.4212 35.6999H12.6002V31.4999H25.2002V35.6999H29.4212L32.6762 24.8849L37.8002 23.1629V15.7499H35.7002ZM23.1002 14.6999H12.6002V10.4999H23.1002V14.6999ZM29.4002 18.8999C28.2452 18.8999 27.3002 17.9549 27.3002 16.7999C27.3002 15.6449 28.2452 14.6999 29.4002 14.6999C30.5552 14.6999 31.5002 15.6449 31.5002 16.7999C31.5002 17.9549 30.5552 18.8999 29.4002 18.8999Z" fill="#29166F"/>
</g>
<path d="M27.3 16.8C27.3 15.645 28.245 14.7 29.4 14.7C30.555 14.7 31.5 15.645 31.5 16.8C31.5 17.955 30.555 18.9 29.4 18.9C28.245 18.9 27.3 17.955 27.3 16.8ZM12.6 14.7H23.1V10.5H12.6V14.7ZM42 11.55V26.187L36.078 28.161L32.55 39.9H21V35.7H16.8V39.9H5.25C5.25 39.9 0 22.134 0 15.75C0 9.366 5.166 4.2 11.55 4.2H22.05C23.961 1.659 27.006 0 30.45 0C32.193 0 33.6 1.407 33.6 3.15C33.6 3.591 33.516 3.99 33.348 4.368C33.054 5.082 32.802 5.901 32.676 6.783L37.443 11.55H42ZM37.8 15.75H35.7L28.35 8.4C28.35 7.035 28.539 5.691 28.896 4.389C26.859 4.914 25.2 6.426 24.507 8.4H11.55C7.497 8.4 4.2 11.697 4.2 15.75C4.2 19.698 6.762 29.715 8.421 35.7H12.6V31.5H25.2V35.7H29.421L32.676 24.885L37.8 23.163V15.75Z" fill="#29166F"/>
</svg>
