<svg id="Layer_1" data-name="Layer 1" xmlns="http://www.w3.org/2000/svg" viewBox="0 0 40 27"><defs><style>.cls-1{fill:#29166f;}</style></defs><path class="cls-1" d="M2.57,20.47l5.5-14h2.68l5.46,14H13.15l-2.84-7.54c-.08-.23-.18-.51-.29-.84L9.67,11c-.12-.37-.23-.73-.33-1.07s-.18-.62-.25-.83l.54,0q-.12.44-.27.93c-.1.33-.21.66-.32,1s-.23.68-.34,1-.22.63-.33.92l-2.82,7.5Zm2.56-2.94,1-2.44h6.38l1,2.44Z"/><path class="cls-1" d="M18.19,20.47v-14h6.2a4.78,4.78,0,0,1,2.37.58,4.48,4.48,0,0,1,1.67,1.59A4.34,4.34,0,0,1,29.05,11a4.33,4.33,0,0,1-.62,2.28,4.55,4.55,0,0,1-1.67,1.62,4.69,4.69,0,0,1-2.37.6H21.07v5ZM21.07,13h3.2a1.75,1.75,0,0,0,.95-.25,1.7,1.7,0,0,0,.64-.69,2.17,2.17,0,0,0,.23-1,1.87,1.87,0,0,0-.28-1,2,2,0,0,0-.78-.7,2.51,2.51,0,0,0-1.16-.25h-2.8Zm5.08,7.48-3.56-6.34,3.06-.5,4,6.86Z"/></svg>