<svg width="20" height="5" viewBox="0 0 20 5" fill="none" xmlns="http://www.w3.org/2000/svg">
<path d="M2.50024 0C1.12524 0 0.000244141 1.125 0.000244141 2.5C0.000244141 3.875 1.12524 5 2.50024 5C3.87524 5 5.00024 3.875 5.00024 2.5C5.00024 1.125 3.87524 0 2.50024 0ZM17.5002 0C16.1252 0 15.0002 1.125 15.0002 2.5C15.0002 3.875 16.1252 5 17.5002 5C18.8752 5 20.0002 3.875 20.0002 2.5C20.0002 1.125 18.8752 0 17.5002 0ZM10.0002 0C8.62524 0 7.50024 1.125 7.50024 2.5C7.50024 3.875 8.62524 5 10.0002 5C11.3752 5 12.5002 3.875 12.5002 2.5C12.5002 1.125 11.3752 0 10.0002 0Z" fill="black"/>
</svg>
